# xmcd CD Database Entry
#
# Track frame offsets:
# 183
# 16170
# 32470
# 46695
# 59320
# 73195
# 87220
# 100833
# 118158
# 134695
# 147970
# 163345
# 178458
# 191470
# 204333
#
# Disc length: 2869 seconds
#
# Revision: 1
# Processed by: cddbd v1.4PL0 Copyright (c) Steve Scherf et al.
# Submitted via: tcd 2.0b
#
DISCID=d60b330f
DTITLE=Los Chiquillos/Sound of acarina
DYEAR=1900
DGENRE=
TTITLE0=Song of ocarina
TTITLE1=Il silenzio
TTITLE2=Lonely sphepherd
TTITLE3=D'ont cry for me argentina
TTITLE4=Love me tender
TTITLE5=Concerto pour un amour
TTITLE6=Reves d'Honolulu
TTITLE7=Implora
TTITLE8=Dolannes melodie
TTITLE9=Solenzara
TTITLE10=Guantanamera
TTITLE11=Matia Elena
TTITLE12=El condor pasa
TTITLE13=Concerto de minuit
TTITLE14=Bal aux Antilles
EXTD=
EXTT0=
EXTT1=
EXTT2=
EXTT3=
EXTT4=
EXTT5=
EXTT6=
EXTT7=
EXTT8=
EXTT9=
EXTT10=
EXTT11=
EXTT12=
EXTT13=
EXTT14=
PLAYORDER=
